<svg width="30" height="35" viewBox="0 0 30 35" fill="none" xmlns="http://www.w3.org/2000/svg">
<g clip-path="url(#clip0_478_63)">
<path d="M26.7857 2.14282H3.21429C2.3618 2.14282 1.54424 2.48147 0.941442 3.08426C0.338647 3.68706 0 4.50463 0 5.35711L0 28.9285C0 29.781 0.338647 30.5986 0.941442 31.2014C1.54424 31.8042 2.3618 32.1428 3.21429 32.1428H12.4051V21.9435H8.18638V17.1428H12.4051V13.4839C12.4051 9.32206 14.8828 7.02318 18.6777 7.02318C20.4951 7.02318 22.3955 7.34729 22.3955 7.34729V11.4321H20.3016C18.2384 11.4321 17.5949 12.7125 17.5949 14.0256V17.1428H22.2007L21.4641 21.9435H17.5949V32.1428H26.7857C27.6382 32.1428 28.4558 31.8042 29.0586 31.2014C29.6614 30.5986 30 29.781 30 28.9285V5.35711C30 4.50463 29.6614 3.68706 29.0586 3.08426C28.4558 2.48147 27.6382 2.14282 26.7857 2.14282V2.14282Z" fill="#193498"/>
</g>
<defs>
<clipPath id="clip0_478_63">
<rect width="30" height="34.2857" fill="white"/>
</clipPath>
</defs>
</svg>
