<svg width="192" height="51" viewBox="0 0 192 51" fill="none" xmlns="http://www.w3.org/2000/svg">
<circle cx="1" cy="1" r="1" fill="#64FBD3"/>
<circle cx="11" cy="1" r="1" fill="#64FBD3"/>
<circle cx="21" cy="1" r="1" fill="#64FBD3"/>
<circle cx="31" cy="1" r="1" fill="#64FBD3"/>
<circle cx="41" cy="1" r="1" fill="#64FBD3"/>
<circle cx="51" cy="1" r="1" fill="#64FBD3"/>
<circle cx="61" cy="1" r="1" fill="#64FBD3"/>
<circle cx="71" cy="1" r="1" fill="#64FBD3"/>
<circle cx="81" cy="1" r="1" fill="#64FBD3"/>
<circle cx="91" cy="1" r="1" fill="#64FBD3"/>
<circle cx="101" cy="1" r="1" fill="#64FBD3"/>
<circle cx="111" cy="1" r="1" fill="#64FBD3"/>
<circle cx="121" cy="1" r="1" fill="#64FBD3"/>
<circle cx="131" cy="1" r="1" fill="#64FBD3"/>
<circle cx="141" cy="1" r="1" fill="#64FBD3"/>
<circle cx="151" cy="1" r="1" fill="#64FBD3"/>
<circle cx="161" cy="1" r="1" fill="#64FBD3"/>
<circle cx="171" cy="1" r="1" fill="#64FBD3"/>
<circle cx="181" cy="1" r="1" fill="#64FBD3"/>
<circle cx="191" cy="1" r="1" fill="#64FBD3"/>
<circle cx="1" cy="8" r="1" fill="#64FBD3"/>
<circle cx="11" cy="8" r="1" fill="#64FBD3"/>
<circle cx="21" cy="8" r="1" fill="#64FBD3"/>
<circle cx="31" cy="8" r="1" fill="#64FBD3"/>
<circle cx="41" cy="8" r="1" fill="#64FBD3"/>
<circle cx="51" cy="8" r="1" fill="#64FBD3"/>
<circle cx="61" cy="8" r="1" fill="#64FBD3"/>
<circle cx="71" cy="8" r="1" fill="#64FBD3"/>
<circle cx="81" cy="8" r="1" fill="#64FBD3"/>
<circle cx="91" cy="8" r="1" fill="#64FBD3"/>
<circle cx="101" cy="8" r="1" fill="#64FBD3"/>
<circle cx="111" cy="8" r="1" fill="#64FBD3"/>
<circle cx="121" cy="8" r="1" fill="#64FBD3"/>
<circle cx="131" cy="8" r="1" fill="#64FBD3"/>
<circle cx="141" cy="8" r="1" fill="#64FBD3"/>
<circle cx="151" cy="8" r="1" fill="#64FBD3"/>
<circle cx="161" cy="8" r="1" fill="#64FBD3"/>
<circle cx="171" cy="8" r="1" fill="#64FBD3"/>
<circle cx="181" cy="8" r="1" fill="#64FBD3"/>
<circle cx="191" cy="8" r="1" fill="#64FBD3"/>
<circle cx="1" cy="15" r="1" fill="#64FBD3"/>
<circle cx="11" cy="15" r="1" fill="#64FBD3"/>
<circle cx="21" cy="15" r="1" fill="#64FBD3"/>
<circle cx="31" cy="15" r="1" fill="#64FBD3"/>
<circle cx="41" cy="15" r="1" fill="#64FBD3"/>
<circle cx="51" cy="15" r="1" fill="#64FBD3"/>
<circle cx="61" cy="15" r="1" fill="#64FBD3"/>
<circle cx="71" cy="15" r="1" fill="#64FBD3"/>
<circle cx="81" cy="15" r="1" fill="#64FBD3"/>
<circle cx="91" cy="15" r="1" fill="#64FBD3"/>
<circle cx="101" cy="15" r="1" fill="#64FBD3"/>
<circle cx="111" cy="15" r="1" fill="#64FBD3"/>
<circle cx="121" cy="15" r="1" fill="#64FBD3"/>
<circle cx="131" cy="15" r="1" fill="#64FBD3"/>
<circle cx="141" cy="15" r="1" fill="#64FBD3"/>
<circle cx="151" cy="15" r="1" fill="#64FBD3"/>
<circle cx="161" cy="15" r="1" fill="#64FBD3"/>
<circle cx="171" cy="15" r="1" fill="#64FBD3"/>
<circle cx="181" cy="15" r="1" fill="#64FBD3"/>
<circle cx="191" cy="15" r="1" fill="#64FBD3"/>
<circle cx="1" cy="22" r="1" fill="#64FBD3"/>
<circle cx="11" cy="22" r="1" fill="#64FBD3"/>
<circle cx="21" cy="22" r="1" fill="#64FBD3"/>
<circle cx="31" cy="22" r="1" fill="#64FBD3"/>
<circle cx="41" cy="22" r="1" fill="#64FBD3"/>
<circle cx="51" cy="22" r="1" fill="#64FBD3"/>
<circle cx="61" cy="22" r="1" fill="#64FBD3"/>
<circle cx="71" cy="22" r="1" fill="#64FBD3"/>
<circle cx="81" cy="22" r="1" fill="#64FBD3"/>
<circle cx="91" cy="22" r="1" fill="#64FBD3"/>
<circle cx="101" cy="22" r="1" fill="#64FBD3"/>
<circle cx="111" cy="22" r="1" fill="#64FBD3"/>
<circle cx="121" cy="22" r="1" fill="#64FBD3"/>
<circle cx="131" cy="22" r="1" fill="#64FBD3"/>
<circle cx="141" cy="22" r="1" fill="#64FBD3"/>
<circle cx="151" cy="22" r="1" fill="#64FBD3"/>
<circle cx="161" cy="22" r="1" fill="#64FBD3"/>
<circle cx="171" cy="22" r="1" fill="#64FBD3"/>
<circle cx="181" cy="22" r="1" fill="#64FBD3"/>
<circle cx="191" cy="22" r="1" fill="#64FBD3"/>
<circle cx="1" cy="29" r="1" fill="#64FBD3"/>
<circle cx="11" cy="29" r="1" fill="#64FBD3"/>
<circle cx="21" cy="29" r="1" fill="#64FBD3"/>
<circle cx="31" cy="29" r="1" fill="#64FBD3"/>
<circle cx="41" cy="29" r="1" fill="#64FBD3"/>
<circle cx="51" cy="29" r="1" fill="#64FBD3"/>
<circle cx="61" cy="29" r="1" fill="#64FBD3"/>
<circle cx="71" cy="29" r="1" fill="#64FBD3"/>
<circle cx="81" cy="29" r="1" fill="#64FBD3"/>
<circle cx="91" cy="29" r="1" fill="#64FBD3"/>
<circle cx="101" cy="29" r="1" fill="#64FBD3"/>
<circle cx="111" cy="29" r="1" fill="#64FBD3"/>
<circle cx="121" cy="29" r="1" fill="#64FBD3"/>
<circle cx="131" cy="29" r="1" fill="#64FBD3"/>
<circle cx="141" cy="29" r="1" fill="#64FBD3"/>
<circle cx="151" cy="29" r="1" fill="#64FBD3"/>
<circle cx="161" cy="29" r="1" fill="#64FBD3"/>
<circle cx="171" cy="29" r="1" fill="#64FBD3"/>
<circle cx="181" cy="29" r="1" fill="#64FBD3"/>
<circle cx="191" cy="29" r="1" fill="#64FBD3"/>
<circle cx="1" cy="36" r="1" fill="#64FBD3"/>
<circle cx="11" cy="36" r="1" fill="#64FBD3"/>
<circle cx="21" cy="36" r="1" fill="#64FBD3"/>
<circle cx="31" cy="36" r="1" fill="#64FBD3"/>
<circle cx="41" cy="36" r="1" fill="#64FBD3"/>
<circle cx="51" cy="36" r="1" fill="#64FBD3"/>
<circle cx="61" cy="36" r="1" fill="#64FBD3"/>
<circle cx="71" cy="36" r="1" fill="#64FBD3"/>
<circle cx="81" cy="36" r="1" fill="#64FBD3"/>
<circle cx="91" cy="36" r="1" fill="#64FBD3"/>
<circle cx="101" cy="36" r="1" fill="#64FBD3"/>
<circle cx="111" cy="36" r="1" fill="#64FBD3"/>
<circle cx="121" cy="36" r="1" fill="#64FBD3"/>
<circle cx="131" cy="36" r="1" fill="#64FBD3"/>
<circle cx="141" cy="36" r="1" fill="#64FBD3"/>
<circle cx="151" cy="36" r="1" fill="#64FBD3"/>
<circle cx="161" cy="36" r="1" fill="#64FBD3"/>
<circle cx="171" cy="36" r="1" fill="#64FBD3"/>
<circle cx="181" cy="36" r="1" fill="#64FBD3"/>
<circle cx="191" cy="36" r="1" fill="#64FBD3"/>
<circle cx="1" cy="43" r="1" fill="#64FBD3"/>
<circle cx="11" cy="43" r="1" fill="#64FBD3"/>
<circle cx="21" cy="43" r="1" fill="#64FBD3"/>
<circle cx="31" cy="43" r="1" fill="#64FBD3"/>
<circle cx="41" cy="43" r="1" fill="#64FBD3"/>
<circle cx="51" cy="43" r="1" fill="#64FBD3"/>
<circle cx="61" cy="43" r="1" fill="#64FBD3"/>
<circle cx="71" cy="43" r="1" fill="#64FBD3"/>
<circle cx="81" cy="43" r="1" fill="#64FBD3"/>
<circle cx="91" cy="43" r="1" fill="#64FBD3"/>
<circle cx="101" cy="43" r="1" fill="#64FBD3"/>
<circle cx="111" cy="43" r="1" fill="#64FBD3"/>
<circle cx="121" cy="43" r="1" fill="#64FBD3"/>
<circle cx="131" cy="43" r="1" fill="#64FBD3"/>
<circle cx="141" cy="43" r="1" fill="#64FBD3"/>
<circle cx="151" cy="43" r="1" fill="#64FBD3"/>
<circle cx="161" cy="43" r="1" fill="#64FBD3"/>
<circle cx="171" cy="43" r="1" fill="#64FBD3"/>
<circle cx="181" cy="43" r="1" fill="#64FBD3"/>
<circle cx="191" cy="43" r="1" fill="#64FBD3"/>
<circle cx="1" cy="50" r="1" fill="#64FBD3"/>
<circle cx="11" cy="50" r="1" fill="#64FBD3"/>
<circle cx="21" cy="50" r="1" fill="#64FBD3"/>
<circle cx="31" cy="50" r="1" fill="#64FBD3"/>
<circle cx="41" cy="50" r="1" fill="#64FBD3"/>
<circle cx="51" cy="50" r="1" fill="#64FBD3"/>
<circle cx="61" cy="50" r="1" fill="#64FBD3"/>
<circle cx="71" cy="50" r="1" fill="#64FBD3"/>
<circle cx="81" cy="50" r="1" fill="#64FBD3"/>
<circle cx="91" cy="50" r="1" fill="#64FBD3"/>
<circle cx="101" cy="50" r="1" fill="#64FBD3"/>
<circle cx="111" cy="50" r="1" fill="#64FBD3"/>
<circle cx="121" cy="50" r="1" fill="#64FBD3"/>
<circle cx="131" cy="50" r="1" fill="#64FBD3"/>
<circle cx="141" cy="50" r="1" fill="#64FBD3"/>
<circle cx="151" cy="50" r="1" fill="#64FBD3"/>
<circle cx="161" cy="50" r="1" fill="#64FBD3"/>
<circle cx="171" cy="50" r="1" fill="#64FBD3"/>
<circle cx="181" cy="50" r="1" fill="#64FBD3"/>
<circle cx="191" cy="50" r="1" fill="#64FBD3"/>
</svg>
