<svg width="30" height="30" viewBox="0 0 30 30" fill="none" xmlns="http://www.w3.org/2000/svg">
<path d="M18.34 19.0481C19.8425 18.7356 21.2056 18.1944 22.265 17.3994C24.075 16.0425 25 13.9462 25 11.875C25 10.4225 24.4494 9.06625 23.4956 7.9175C22.9644 7.2775 24.5181 2.50062 23.1375 3.14375C21.7563 3.7875 19.7312 5.21125 18.6706 4.89687C17.4785 4.54769 16.2422 4.37193 15 4.375C13.875 4.375 12.7925 4.51437 11.7831 4.77125C10.3156 5.145 8.91188 3.75 7.5 3.14375C6.0875 2.5375 6.85875 7.4775 6.43938 7.99687C5.525 9.12812 5 10.4562 5 11.875C5 13.9462 6.11875 16.0425 7.92875 17.4C9.135 18.3038 10.6462 18.88 12.3375 19.1638M12.3375 19.1638C11.6131 19.9606 11.2513 20.7175 11.2513 21.4337V26.8819M18.3406 19.0481C19.0262 19.9481 19.3694 20.7569 19.3694 21.4731V26.8819M3.75 19.5094C4.31187 19.5781 4.72875 19.8369 5 20.2844C5.4075 20.9563 6.92125 23.4488 8.64062 23.4488H11.2513" stroke="#64FBD3" stroke-width="2.5" stroke-linecap="round"/>
</svg>
