<svg width="30" height="31" viewBox="0 0 30 31" fill="none" xmlns="http://www.w3.org/2000/svg">
<g clip-path="url(#clip0_478_74)">
<path d="M18.525 13.2431C15.5278 14.7806 12.1725 11.9147 13.2178 8.71217C14.2678 5.50873 18.6674 5.18061 20.1768 8.19467C20.4011 8.63461 20.5364 9.11451 20.5748 9.60684C20.6132 10.0992 20.554 10.5942 20.4006 11.0636C20.2472 11.533 20.0027 11.9675 19.681 12.3422C19.3592 12.7168 18.9667 13.0243 18.5259 13.2469L18.525 13.2431ZM14.5021 1.06967C17.5874 -0.0525178 21.1181 0.00560719 23.7599 2.30061C24.3182 2.76033 24.7569 3.34831 25.0387 4.01436C25.3021 4.87311 24.1012 3.92529 23.9399 3.80436C23.1055 3.23425 22.2016 2.77302 21.2503 2.43186C16.0453 0.84092 11.1225 3.74061 8.0812 8.25186C6.84073 10.2409 5.89349 12.3984 5.2687 14.6578C5.21032 14.9353 5.12199 15.2056 5.00526 15.464C4.86933 15.7181 4.94151 14.775 4.94151 14.7469C5.05401 13.8047 5.23495 12.8672 5.4787 11.9484C6.88964 7.03217 10.0153 2.93998 14.5021 1.06498V1.06967ZM14.5462 27.315V16.3584C14.8584 16.3922 15.1509 16.4072 15.464 16.4072C16.8853 16.4119 18.2765 16.0209 19.4924 15.2887V27.3103C19.4924 28.3415 19.3012 29.0981 18.8371 29.5969C18.6087 29.8478 18.3283 30.0458 18.0155 30.1773C17.7027 30.3088 17.365 30.3705 17.0259 30.3581C16.6903 30.3702 16.3561 30.3083 16.0471 30.1768C15.7381 30.0452 15.4619 29.8472 15.2381 29.5969C14.7796 29.0934 14.5406 28.3322 14.5406 27.3159L14.5462 27.315Z" fill="#193498"/>
</g>
<defs>
<clipPath id="clip0_478_74">
<rect width="30" height="30" fill="white" transform="translate(0 0.357178)"/>
</clipPath>
</defs>
</svg>
