<svg width="28" height="31" viewBox="0 0 28 31" fill="none" xmlns="http://www.w3.org/2000/svg">
<g clip-path="url(#clip0_478_72)">
<path d="M14 12.2318C13.3819 12.232 12.7778 12.4155 12.2639 12.7591C11.7501 13.1026 11.3497 13.5908 11.1134 14.162C10.877 14.7331 10.8153 15.3614 10.936 15.9676C11.0567 16.5738 11.3545 17.1306 11.7916 17.5676C12.2287 18.0046 12.7856 18.3021 13.3919 18.4226C13.9981 18.5431 14.6265 18.4811 15.1975 18.2446C15.7685 18.008 16.2566 17.6074 16.5999 17.0934C16.9433 16.5795 17.1266 15.9753 17.1266 15.3572C17.1259 14.5283 16.7963 13.7335 16.2101 13.1475C15.6238 12.5614 14.8289 12.2321 14 12.2318V12.2318ZM21.3072 9.82944C21.1481 9.42623 20.9079 9.06 20.6013 8.75349C20.2948 8.44698 19.9286 8.20671 19.5254 8.04761C18.2949 7.56187 15.3652 7.67085 14 7.67085C12.6348 7.67085 9.70801 7.55776 8.47402 8.04761C8.07081 8.20671 7.70458 8.44698 7.39807 8.75349C7.09156 9.06 6.85129 9.42623 6.69219 9.82944C6.20703 11.0599 6.31543 13.9925 6.31543 15.3566C6.31543 16.7207 6.20703 19.6498 6.69453 20.8843C6.85364 21.2875 7.0939 21.6538 7.40041 21.9603C7.70693 22.2668 8.07315 22.5071 8.47637 22.6662C9.70684 23.1519 12.6365 23.0429 14.0023 23.0429C15.3682 23.0429 18.2937 23.156 19.5277 22.6662C19.931 22.5071 20.2972 22.2668 20.6037 21.9603C20.9102 21.6538 21.1505 21.2875 21.3096 20.8843C21.7988 19.6539 21.6863 16.7212 21.6863 15.3572C21.6863 13.9931 21.7988 11.0646 21.3096 9.83003L21.3072 9.82944ZM14 20.1619C13.0497 20.1619 12.1208 19.8801 11.3307 19.3521C10.5405 18.8242 9.9247 18.0738 9.56105 17.1959C9.19739 16.3179 9.10224 15.3518 9.28763 14.4198C9.47302 13.4878 9.93063 12.6317 10.6026 11.9598C11.2745 11.2878 12.1306 10.8302 13.0627 10.6448C13.9947 10.4594 14.9607 10.5546 15.8387 10.9182C16.7166 11.2819 17.467 11.8977 17.995 12.6878C18.5229 13.478 18.8047 14.4069 18.8047 15.3572C18.8055 15.9884 18.6817 16.6135 18.4405 17.1968C18.1993 17.78 17.8455 18.31 17.3991 18.7563C16.9528 19.2026 16.4229 19.5565 15.8396 19.7977C15.2563 20.0389 14.6312 20.1626 14 20.1619V20.1619ZM19.0027 11.4724C18.7809 11.4725 18.564 11.4069 18.3795 11.2837C18.195 11.1605 18.0512 10.9854 17.9662 10.7805C17.8812 10.5756 17.8589 10.3501 17.9021 10.1325C17.9453 9.91491 18.0521 9.71503 18.2089 9.55813C18.3658 9.40122 18.5656 9.29436 18.7831 9.25104C19.0007 9.20771 19.2262 9.22989 19.4312 9.31476C19.6361 9.39962 19.8113 9.54336 19.9346 9.7278C20.0578 9.91224 20.1236 10.1291 20.1236 10.3509C20.1243 10.4982 20.0958 10.6442 20.0398 10.7805C19.9839 10.9168 19.9016 11.0407 19.7977 11.1451C19.6938 11.2495 19.5703 11.3324 19.4343 11.389C19.2982 11.4455 19.1524 11.4747 19.0051 11.4748L19.0027 11.4724ZM24.3125 2.23218H3.6875C2.94158 2.23218 2.22621 2.52849 1.69876 3.05594C1.17132 3.58339 0.875 4.29876 0.875 5.04468L0.875 25.6697C0.875 26.4156 1.17132 27.131 1.69876 27.6584C2.22621 28.1859 2.94158 28.4822 3.6875 28.4822H24.3125C25.0584 28.4822 25.7738 28.1859 26.3012 27.6584C26.8287 27.131 27.125 26.4156 27.125 25.6697V5.04468C27.125 4.29876 26.8287 3.58339 26.3012 3.05594C25.7738 2.52849 25.0584 2.23218 24.3125 2.23218V2.23218ZM23.3094 19.2244C23.2338 20.7261 22.891 22.0568 21.7947 23.1501C20.6984 24.2435 19.3689 24.5933 17.8689 24.6648C16.3215 24.7521 11.682 24.7521 10.1346 24.6648C8.63281 24.5892 7.30684 24.2458 6.20879 23.1501C5.11074 22.0544 4.76563 20.7232 4.69414 19.2244C4.60684 17.6763 4.60684 13.0363 4.69414 11.49C4.76973 9.98823 5.1084 8.65757 6.20879 7.56421C7.30918 6.47085 8.63867 6.12515 10.1346 6.05366C11.682 5.96636 16.3215 5.96636 17.8689 6.05366C19.3707 6.12925 20.7008 6.47261 21.7947 7.56831C22.8887 8.66401 23.2379 9.99526 23.3094 11.497C23.3967 13.0392 23.3967 17.6751 23.3094 19.2244Z" fill="#193498"/>
</g>
<defs>
<clipPath id="clip0_478_72">
<rect width="26.25" height="30" fill="white" transform="translate(0.875 0.357178)"/>
</clipPath>
</defs>
</svg>
