<svg width="20" height="20" viewBox="0 0 20 20" fill="none" xmlns="http://www.w3.org/2000/svg">
<path d="M13.3583 8.23333H11.2708V7.715H13.3591V8.23417L13.3583 8.23333ZM9.88075 10.3608C10.0158 10.5692 10.0824 10.8225 10.0824 11.12C10.0824 11.4283 10.0074 11.7033 9.85242 11.9475C9.74917 12.119 9.61115 12.267 9.44724 12.382C9.28334 12.497 9.09718 12.5763 8.90075 12.615C8.65961 12.6632 8.41417 12.6867 8.16825 12.685H5.83325V7.5H8.33742C8.96825 7.51 9.41575 7.69333 9.67992 8.0525C9.83825 8.2725 9.91742 8.53667 9.91742 8.84417C9.91742 9.16083 9.83825 9.415 9.67742 9.6075C9.58909 9.71583 9.45742 9.81417 9.28325 9.9025C9.54659 9.99917 9.74659 10.1508 9.88075 10.3608ZM7.02909 9.54417H8.12659C8.35159 9.54417 8.53409 9.50167 8.67409 9.41583C8.81492 9.33 8.88492 9.17833 8.88492 8.96C8.88492 8.71833 8.79242 8.55833 8.60659 8.48167C8.40803 8.4222 8.20129 8.39464 7.99409 8.4H7.02909V9.54417ZM8.99075 11.0458C8.99075 10.7767 8.87992 10.5908 8.66075 10.4908C8.53742 10.4342 8.36409 10.405 8.14242 10.4025H7.02909V11.7842H8.12492C8.34992 11.7842 8.52492 11.755 8.64992 11.6933C8.87659 11.5808 8.99075 11.3658 8.99075 11.0458ZM14.1333 10.2025C14.1583 10.3725 14.1699 10.6183 14.1658 10.94H11.4616C11.4766 11.3133 11.6049 11.5742 11.8499 11.7233C11.9966 11.8175 12.1749 11.8633 12.3849 11.8633C12.6058 11.8633 12.7849 11.8075 12.9241 11.6925C13.0069 11.6218 13.0747 11.535 13.1233 11.4375H14.1149C14.0883 11.6583 13.9691 11.8817 13.7549 12.1092C13.4216 12.47 12.9566 12.6508 12.3574 12.6508C11.8812 12.657 11.418 12.4953 11.0491 12.1942C10.6724 11.8892 10.4824 11.3942 10.4824 10.7067C10.4824 10.0625 10.6533 9.56917 10.9941 9.22583C11.3358 8.88167 11.7783 8.71083 12.3233 8.71083C12.6458 8.71083 12.9366 8.76833 13.1966 8.88417C13.4549 9.00083 13.6691 9.18333 13.8374 9.43417C13.9899 9.65583 14.0874 9.91083 14.1333 10.2025ZM13.1583 10.2992C13.1399 10.0408 13.0533 9.84583 12.8983 9.7125C12.7383 9.57625 12.5333 9.50436 12.3233 9.51083C12.0733 9.51083 11.8808 9.58333 11.7433 9.72417C11.6058 9.86583 11.5199 10.0575 11.4849 10.2992H13.1583Z" fill="#193498"/>
<path d="M4.99996 3.33329C4.55793 3.33329 4.13401 3.50889 3.82145 3.82145C3.50889 4.13401 3.33329 4.55793 3.33329 4.99996V15C3.33329 15.442 3.50889 15.8659 3.82145 16.1785C4.13401 16.491 4.55793 16.6666 4.99996 16.6666H15C15.442 16.6666 15.8659 16.491 16.1785 16.1785C16.491 15.8659 16.6666 15.442 16.6666 15V4.99996C16.6666 4.55793 16.491 4.13401 16.1785 3.82145C15.8659 3.50889 15.442 3.33329 15 3.33329H4.99996ZM4.99996 1.66663H15C15.884 1.66663 16.7319 2.01782 17.357 2.64294C17.9821 3.26806 18.3333 4.1159 18.3333 4.99996V15C18.3333 15.884 17.9821 16.7319 17.357 17.357C16.7319 17.9821 15.884 18.3333 15 18.3333H4.99996C4.1159 18.3333 3.26806 17.9821 2.64294 17.357C2.01782 16.7319 1.66663 15.884 1.66663 15V4.99996C1.66663 4.1159 2.01782 3.26806 2.64294 2.64294C3.26806 2.01782 4.1159 1.66663 4.99996 1.66663Z" fill="#193498"/>
</svg>
