<svg width="30" height="31" viewBox="0 0 30 31" fill="none" xmlns="http://www.w3.org/2000/svg">
<g clip-path="url(#clip0_478_75)">
<path d="M0 2.50593C0 1.31905 0.98625 0.357178 2.20312 0.357178H27.7969C29.0137 0.357178 30 1.31905 30 2.50593V28.2084C30 29.3953 29.0137 30.3572 27.7969 30.3572H2.20312C0.98625 30.3572 0 29.3953 0 28.2084V2.50593ZM9.26812 25.4709V11.9241H4.76625V25.4709H9.26812ZM7.01813 10.0734C8.5875 10.0734 9.56437 9.03468 9.56437 7.73343C9.53625 6.40405 8.58938 5.39343 7.04813 5.39343C5.50688 5.39343 4.5 6.40593 4.5 7.73343C4.5 9.03468 5.47688 10.0734 6.98812 10.0734H7.01813V10.0734ZM16.2206 25.4709V17.9053C16.2206 17.5003 16.2506 17.0953 16.3706 16.8066C16.695 15.9984 17.4356 15.1603 18.6806 15.1603C20.31 15.1603 20.9606 16.4016 20.9606 18.2241V25.4709H25.4625V17.7009C25.4625 13.5384 23.2425 11.6034 20.28 11.6034C17.8912 11.6034 16.8206 12.9159 16.2206 13.8403V13.8872H16.1906C16.2006 13.8715 16.2106 13.8559 16.2206 13.8403V11.9241H11.7206C11.7769 13.1953 11.7206 25.4709 11.7206 25.4709H16.2206Z" fill="#193498"/>
</g>
<defs>
<clipPath id="clip0_478_75">
<rect width="30" height="30" fill="white" transform="translate(0 0.357178)"/>
</clipPath>
</defs>
</svg>
