<svg width="30" height="25" viewBox="0 0 30 25" fill="none" xmlns="http://www.w3.org/2000/svg">
<g clip-path="url(#clip0_478_73)">
<path d="M29.9925 2.88519C29.1575 4.1272 28.1331 5.18595 26.9192 6.06145C26.9312 6.29625 26.9372 6.56164 26.9372 6.85761C26.9372 8.5021 26.6975 10.1486 26.218 11.797C25.7384 13.4455 25.006 15.0234 24.0206 16.5307C23.0352 18.038 21.8613 19.3733 20.4991 20.5367C19.1369 21.7001 17.4995 22.6277 15.5868 23.3195C13.6742 24.0113 11.6243 24.3573 9.43728 24.3573C6.02402 24.3573 2.88074 23.4358 0.00744629 21.5929C0.517422 21.6496 1.00653 21.678 1.47478 21.678C4.32628 21.678 6.87313 20.7997 9.11532 19.0431C7.78579 19.0187 6.5951 18.6095 5.54324 17.8153C4.49138 17.0211 3.76751 16.0064 3.37164 14.7709C3.76293 14.8455 4.14913 14.8827 4.53022 14.8827C5.07878 14.8827 5.61855 14.8112 6.14954 14.6681C4.73068 14.3839 3.55362 13.6772 2.61835 12.548C1.68311 11.4189 1.21549 10.1156 1.21549 8.63815V8.56201C2.08639 9.04422 3.01535 9.30071 4.00235 9.3315C3.16183 8.77116 2.49542 8.04045 2.00313 7.13937C1.51081 6.2383 1.26465 5.26319 1.26465 4.21402C1.26465 3.1075 1.54192 2.07713 2.09647 1.12289C3.63945 3.01638 5.5091 4.52971 7.70541 5.66289C9.90175 6.79608 12.258 7.42543 14.7742 7.55091C14.6668 7.10367 14.6131 6.63694 14.6129 6.15074C14.6129 4.4531 15.2137 3.00357 16.4152 1.80214C17.6167 0.600714 19.0663 0 20.764 0C22.5413 0 24.0384 0.64718 25.2552 1.94154C26.6455 1.66616 27.9473 1.16806 29.1605 0.447248C28.6931 1.91826 27.7924 3.05305 26.4585 3.85161C27.6845 3.70592 28.8625 3.38378 29.9924 2.88519H29.9925Z" fill="#193498"/>
</g>
<defs>
<clipPath id="clip0_478_73">
<rect width="30" height="24.3572" fill="white"/>
</clipPath>
</defs>
</svg>
